<svg xmlns="http://www.w3.org/2000/svg" width="320" height="200" viewBox="0 0 61 40"><path fill="#c20016" d="M18.033 1.6c.109-.106.211-.148.299-.148.157 0 .268.137.263.305a.46.46 0 0 1-.146.305c-3.914 4.764-6.76 10.332-6.76 18.057 0 7.719 2.846 13.18 6.76 17.942a.46.46 0 0 1 .146.305c.005.165-.106.305-.263.305-.088 0-.19-.043-.299-.148L1.363 22.734C.531 22.037 0 21.223 0 20.064c0-1.164.531-1.976 1.363-2.669z"/><path fill="#254f9b" d="M30.851.263c-6.527 0-9.079 9.059-9.079 19.856 0 10.8 2.552 19.739 9.079 19.739 3.916 0 7.255-2.247 7.267-4.093 0-.403-.158-.79-.505-1.13-1.855-1.755-2.581-3.512-2.588-5.06-.01-2.957 2.61-5.161 5.024-5.161 3.321 0 5.28 2.557 5.28 5.866 0 3.135-1.368 5.749-2.85 7.839a.5.5 0 0 0-.084.264c.002.165.099.3.246.3.09 0 .196-.047.31-.16l16.676-15.789c.832-.698 1.364-1.512 1.364-2.671 0-1.164-.532-1.977-1.364-2.67L42.95 1.6c-.114-.112-.22-.159-.31-.159-.148 0-.244.135-.246.3a.5.5 0 0 0 .083.266c1.483 2.087 2.85 4.705 2.85 7.837 0 3.307-1.958 5.866-5.28 5.866-2.413 0-5.034-2.202-5.023-5.16.007-1.55.733-3.306 2.588-5.06.347-.342.505-.727.505-1.13C38.106 2.51 34.768.263 30.85.263"/></svg>