<?xml version="1.0" encoding="UTF-8" standalone="no"?>
<!-- Created with Inkscape (http://www.inkscape.org/) -->

<svg
   xmlns:dc="http://purl.org/dc/elements/1.1/"
   xmlns:cc="http://creativecommons.org/ns#"
   xmlns:rdf="http://www.w3.org/1999/02/22-rdf-syntax-ns#"
   xmlns:svg="http://www.w3.org/2000/svg"
   xmlns="http://www.w3.org/2000/svg"
   xmlns:sodipodi="http://sodipodi.sourceforge.net/DTD/sodipodi-0.dtd"
   xmlns:inkscape="http://www.inkscape.org/namespaces/inkscape"
   width="332.10001"
   height="30.900009"
   viewBox="0 0 87.868125 8.1756272"
   version="1.1"
   id="svg4765"
   inkscape:version="0.92.0 r15299"
   sodipodi:docname="credit saison.svg">
  <defs
     id="defs4759" />
  <sodipodi:namedview
     id="base"
     pagecolor="#ffffff"
     bordercolor="#666666"
     borderopacity="1.0"
     inkscape:pageopacity="0.0"
     inkscape:pageshadow="2"
     inkscape:zoom="2.7173583"
     inkscape:cx="165.05"
     inkscape:cy="14.450003"
     inkscape:document-units="mm"
     inkscape:current-layer="layer1"
     showgrid="false"
     fit-margin-top="0"
     fit-margin-left="0"
     fit-margin-right="0"
     fit-margin-bottom="0"
     units="px"
     inkscape:window-width="1280"
     inkscape:window-height="744"
     inkscape:window-x="-4"
     inkscape:window-y="-4"
     inkscape:window-maximized="1" />
  <metadata
     id="metadata4762">
    <rdf:RDF>
      <cc:Work
         rdf:about="">
        <dc:format>image/svg+xml</dc:format>
        <dc:type
           rdf:resource="http://purl.org/dc/dcmitype/StillImage" />
        <dc:title></dc:title>
      </cc:Work>
    </rdf:RDF>
  </metadata>
  <g
     inkscape:label="Layer 1"
     inkscape:groupmode="layer"
     id="layer1"
     transform="translate(196.37186,-346.32023)">
    <path
       d="m -149.61999,352.61731 c 0.29104,0.60854 0.89959,0.97896 1.56104,0.97896 0.66146,-0.0265 1.24355,-0.42334 1.50813,-1.03188 0.15875,-0.47625 0.0529,-1.00541 -0.29104,-1.37583 -0.55563,-0.50271 -1.29646,-0.52917 -1.905,-0.79375 -0.66146,-0.29104 -1.11125,-0.92604 -1.13771,-1.66688 -0.0265,-0.74083 0.34396,-1.42875 0.97896,-1.7727 0.9525,-0.52917 2.14312,-0.18521 2.67229,0.74083 0.0529,0.0794 0.0794,0.18521 0.13229,0.26458 l -0.50271,0.21167 c -0.15875,-0.34396 -0.44979,-0.60854 -0.76729,-0.79375 -0.50271,-0.21167 -1.08479,-0.10583 -1.45521,0.26458 -0.37041,0.34396 -0.50271,0.87313 -0.39687,1.34938 0.50271,1.32291 2.03729,0.82021 2.8575,1.74625 0.52916,0.58208 0.66146,1.42875 0.37041,2.14312 -0.37041,0.79375 -1.16416,1.29646 -2.01083,1.29646 -0.82021,-0.0265 -1.56104,-0.44979 -1.98437,-1.16417 -0.10584,-0.15875 -0.18521,-0.34395 -0.21167,-0.52916 l 0.47625,-0.21167 z m 19.42042,0 c 0.29104,0.60854 0.89958,0.97896 1.56104,0.97896 0.66146,-0.0265 1.24354,-0.42334 1.50813,-1.03188 0.15875,-0.47625 0.0529,-1.00541 -0.29105,-1.37583 -0.55562,-0.50271 -1.29645,-0.52917 -1.905,-0.79375 -0.66145,-0.29104 -1.11125,-0.92604 -1.1377,-1.66688 -0.0265,-0.74083 0.34395,-1.42875 0.97895,-1.7727 0.9525,-0.52917 2.14313,-0.18521 2.6723,0.74083 0.0529,0.0794 0.0794,0.18521 0.13229,0.26458 l -0.52917,0.21167 c -0.15875,-0.34396 -0.44979,-0.60854 -0.76729,-0.79375 -0.50271,-0.21167 -1.08479,-0.10583 -1.45521,0.26458 -0.37042,0.34396 -0.50271,0.87313 -0.39687,1.34938 0.5027,1.32291 2.03729,0.82021 2.8575,1.74625 0.52916,0.58208 0.66145,1.42875 0.37041,2.14312 -0.37041,0.79375 -1.16416,1.29646 -2.01083,1.29646 -0.82021,-0.0265 -1.56104,-0.44979 -1.98438,-1.16417 -0.10583,-0.15875 -0.1852,-0.34395 -0.21166,-0.52916 l 0.47625,-0.21167 z m -62.25646,1.00542 c -1.69333,0 -3.06917,-1.48167 -3.06917,-3.20146 0,-1.71979 1.37584,-3.175 3.06917,-3.175 0.29104,0 0.60854,0.0529 0.89958,0.13229 v -0.66146 c -0.29104,-0.0794 -0.58208,-0.13229 -0.89958,-0.13229 -0.97896,0 -1.93146,0.42333 -2.59292,1.13771 -0.66145,0.71437 -1.05833,1.69333 -1.05833,2.67229 0,1.00542 0.39688,1.98437 1.08479,2.69875 0.66146,0.71437 1.5875,1.13771 2.56646,1.13771 0.34396,0 0.66146,-0.0529 1.00542,-0.15875 v -0.66146 c -0.3175,0.13229 -0.66146,0.21167 -1.00542,0.21167 z m 8.49313,-4.68313 c 0,-0.55562 -0.21167,-1.08479 -0.58209,-1.48167 -0.37041,-0.37041 -0.87312,-0.60854 -1.40229,-0.60854 h -2.32833 v 7.17021 h 0.60854 v -2.98979 h 1.42875 l 1.45521,2.98979 h 0.68791 l -1.4552,-3.04271 c 0.92604,-0.21166 1.61395,-1.05833 1.5875,-2.03729 z m -3.70417,1.45521 v -2.91042 h 1.71979 c 0.79375,0.0529 1.42875,0.74084 1.37583,1.53459 -0.0265,0.74083 -0.635,1.34937 -1.37583,1.37583 z m 10.92729,3.70417 v -0.635 h -3.12208 v -3.20146 h 3.06916 v -0.635 h -3.06916 v -2.11667 h 3.09562 v -0.635 h -3.73062 v 7.22313 z m 7.77875,-6.13834 c -0.635,-0.74083 -1.5875,-1.16416 -2.59292,-1.13771 h -1.71979 v 7.17021 h 1.98438 c 1.87854,0 3.28083,-1.61396 3.28083,-3.59833 0,-0.89958 -0.34396,-1.77271 -0.9525,-2.43417 z m -2.46062,5.3975 h -1.27 v -5.92666 h 0.84666 c 1.95792,0 3.22792,1.32291 3.22792,2.96333 0,1.64042 -1.24354,2.96333 -2.80458,2.96333 z m 15.00187,-6.56166 h -4.84187 v 0.66145 h 2.0902 v 6.50875 h 0.66146 v -6.48229 h 2.09021 z m 17.88583,7.22312 h 0.635 l -2.93687,-7.35542 -2.93688,7.35542 h 0.635 l 0.92605,-2.35479 h 2.77812 z m -3.43958,-2.98979 1.13771,-2.91042 1.13771,2.91042 z m 7.75229,2.93687 v -7.22312 h -0.66146 v 7.22312 z m -30.13604,-0.0265 v -7.22313 h -0.66146 v 7.22313 z m 45.13792,-4.60375 c -0.26459,-0.29105 -0.66146,-0.42334 -1.03188,-0.42334 -0.37041,0 -0.74083,0.18521 -1.00541,0.47625 -0.26459,0.26459 -0.39688,0.635 -0.37042,1.00542 0,0.39687 0.13229,0.79375 0.39687,1.08479 0.23813,0.26458 0.60855,0.42333 0.97896,0.42333 0.79375,0.0265 1.45521,-0.60854 1.45521,-1.40229 0,-0.0265 0,-0.0529 0,-0.10583 0,-0.39688 -0.15875,-0.76729 -0.42333,-1.05833 z m -1.03188,1.95791 c -0.47625,-0.0265 -0.84666,-0.44979 -0.82021,-0.92604 0,-0.47625 0.34396,-0.84667 0.82021,-0.87312 0.47625,0 0.84667,0.39687 0.87313,0.87312 0.0265,0.47625 -0.3175,0.87313 -0.79375,0.92604 -0.0265,0 -0.0529,0 -0.0794,0 z m 0,-4.63021 c -1.95791,0 -3.51896,1.66688 -3.51896,3.70417 0,2.03729 1.5875,3.78354 3.51896,3.78354 1.93146,0 3.57188,-1.71979 3.57188,-3.78354 0,-2.06375 -1.64042,-3.70417 -3.57188,-3.70417 z m 0,6.87917 c -1.61396,0 -2.93687,-1.45521 -2.93687,-3.14854 0,-1.69333 1.32291,-3.09563 2.93687,-3.09563 1.66688,0.0265 2.98979,1.4023 2.98979,3.06917 0,1.71979 -1.37583,3.175 -2.98979,3.175 z m 10.92729,-1.13771 v -5.60916 h 0.55563 v 7.38187 l -4.23333,-5.63562 v 5.42395 h -0.55563 v -7.22312 z"
       class="st0"
       id="logo.svg"
       inkscape:connector-curvature="0"
       style="fill:#004098;stroke-width:0.26458332" />
  </g>
  <style
     id="style4767"
     type="text/css">
	.st0{fill:#004098;}
</style>
</svg>
