<svg xmlns="http://www.w3.org/2000/svg" width="408.587" height="96.43pt" viewBox="0 0 306.44 96.43"><defs><clipPath id="a"><path d="M254 0h52.441v62H254Zm0 0"/></clipPath><clipPath id="b"><path d="M0 79h11v17.43H0Zm0 0"/></clipPath><clipPath id="c"><path d="M18 79h12v17.43H18Zm0 0"/></clipPath><clipPath id="d"><path d="M33 79h12v17.43H33Zm0 0"/></clipPath><clipPath id="e"><path d="M47 79h13v17.43H47Zm0 0"/></clipPath><clipPath id="f"><path d="M62 79h13v17.43H62Zm0 0"/></clipPath><clipPath id="g"><path d="M76 79h14v17.43H76Zm0 0"/></clipPath><clipPath id="h"><path d="M93 79h13v17.43H93Zm0 0"/></clipPath><clipPath id="i"><path d="M109 79h4v17.43h-4Zm0 0"/></clipPath><clipPath id="j"><path d="M117 79h13v17.43h-13Zm0 0"/></clipPath><clipPath id="k"><path d="M132 79h5v17.43h-5Zm0 0"/></clipPath><clipPath id="l"><path d="M139 79h14v17.43h-14Zm0 0"/></clipPath><clipPath id="m"><path d="M156 79h12v17.43h-12Zm0 0"/></clipPath><clipPath id="n"><path d="M177 79h13v17.43h-13Zm0 0"/></clipPath><clipPath id="o"><path d="M193 79h13v17.43h-13Zm0 0"/></clipPath><clipPath id="p"><path d="M216 79h14v17.43h-14Zm0 0"/></clipPath><clipPath id="q"><path d="M232 79h13v17.43h-13Zm0 0"/></clipPath><clipPath id="r"><path d="M247 78h13v18.43h-13Zm0 0"/></clipPath><clipPath id="s"><path d="M263 79h12v17.43h-12Zm0 0"/></clipPath><clipPath id="t"><path d="M294 79h12.441v17.43H294Zm0 0"/></clipPath><clipPath id="u"><path d="M276 78h16v18.43h-16Zm0 0"/></clipPath></defs><path d="M140.852 50.648c-6.395 0-11.594-4.777-11.594-10.718l.023-1.946h24.727c8.554 0 15.512-6.468 15.512-14.422v-9.136c0-7.953-6.958-14.422-15.512-14.422h-21.574c-1.2 0-2.41.012-3.606.273-7.012 1.559-11.887 7.45-11.887 14.149v5.304c0 1.215.887 2.204 1.98 2.204h8.376c1.094 0 1.98-.989 1.98-2.204v-3.425c0-2.766 2.47-5.02 5.5-5.02h16.914c3.032 0 5.5 2.254 5.5 5.02v5.425c0 2.766-2.468 5.016-5.5 5.016h-41.82v11.238h7.043v1.942c0 12.172 10.785 22.004 23.98 22.004h35.708V50.645z" style="stroke:none;fill-rule:nonzero;fill:#8cc641;fill-opacity:1"/><path d="M85.95 11.297c6.394 0 11.593 4.836 11.593 10.781v37.867c0 1.094.988 1.98 2.2 1.98h7.925c1.215 0 2.203-.886 2.203-1.98V22.078C109.871 9.906 99.141.004 85.95.004H60.457c-1.094 0-1.984.988-1.984 2.207v57.516c0 1.214.89 2.199 1.984 2.199h8.375c1.094 0 1.984-.985 1.984-2.2V11.29zm-69.2-.007h32.492c1.188 0 2.156-.872 2.156-1.942V1.953c0-1.074-.921-1.95-2.156-1.95H16.523C7.414.004 0 6.825 0 15.224v31.484C0 55.105 7.414 61.93 16.523 61.93h32.72c1.187 0 2.155-.875 2.155-1.946V52.59c0-1.07-.968-1.942-2.156-1.942H16.75c-2.39 0-4.41-1.894-4.41-4.136v-8.637h19.43c1.19 0 2.16-.875 2.16-1.945v-7.24c0-1.074-.97-1.945-2.16-1.945H12.34v-11.32c0-2.242 2.02-4.137 4.41-4.137" style="stroke:none;fill-rule:nonzero;fill:#0067b3;fill-opacity:1"/><g clip-path="url(#a)"><path d="M306.438 40.59c0-.559-.004-1.133-.06-1.758-.608-6.875-7.694-12.086-15.167-12.086h-18.535l-.477-.004c-2.969 0-5.383-2.633-5.383-5.86l.02-4.206c0-2.969 2.629-5.383 5.86-5.383h7.316l.07.004h18.484c.946 0 1.786-.55 2.082-1.371a1.7 1.7 0 0 0 .122-.614V1.984c0-1.093-.989-1.98-2.204-1.98L269.73.008c-8.355 0-15.253 6.308-15.253 14.055l.003 8.769c0 8.356 6.305 15.152 14.06 15.152h20.202c2.969 0 5.356 2.63 5.356 5.864v1.406c0 2.965-2.602 5.379-5.832 5.379H256.68c-.946 0-1.782.547-2.078 1.363a1.7 1.7 0 0 0-.125.617v7.328c0 1.094.988 1.985 2.203 1.985h25.851l8.774-.008c8.351 0 15.132-6.305 15.132-14.059z" style="stroke:none;fill-rule:nonzero;fill:#0067b3;fill-opacity:1"/></g><path d="M205.46.004h-26.874c-1.094 0-1.984.988-1.984 2.207v36.414c0 1.219.886 2.203 1.98 2.203h8.367c1.09 0 1.98-.984 1.98-2.203l.012-27.34 15.137.004c6.395 0 11.594 4.84 11.594 10.785v19.887c0 5.945-5.2 8.66-11.594 8.66l-27.476.027V61.93l27.476-.02c13.192 0 23.926-7.777 23.926-19.95V21.946c0-11.68-9.8-21.941-22.543-21.941m41.945 39.007-.02-20.703c0-1.211-.89-2.2-1.98-2.2h-8.347c-1.094 0-1.985.989-1.985 2.2v20.703l.02 20.699c0 1.215.89 2.2 1.98 2.2h8.352c1.09 0 1.98-.985 1.98-2.2zm0-34.305-.02-2.504c0-1.215-.89-2.2-1.98-2.2h-8.347c-1.094 0-1.985.985-1.985 2.2v2.504l.02 4.383c0 1.21.89 2.2 1.98 2.2h8.352c1.09 0 1.98-.99 1.98-2.2z" style="stroke:none;fill-rule:nonzero;fill:#0067b3;fill-opacity:1"/><g clip-path="url(#b)"><path d="M0 95.258V80.016q-.001-.469.484-.704c.325-.156.72-.234 1.176-.234q.69 0 1.176.234.487.235.488.704v13.53H9.56q.461 0 .73.4c.18.265.266.577.266.937q.002.54-.266.937a.84.84 0 0 1-.73.399H1.457q-.591 0-1.023-.258Q0 95.703 0 95.258" style="stroke:none;fill-rule:nonzero;fill:#0067b3;fill-opacity:1"/></g><g clip-path="url(#c)"><path d="M18.379 95.258V80.039q0-.445.433-.703.434-.258 1.024-.258h9.098q.51 0 .78.399.27.398.27.914 0 .563-.28.96a.9.9 0 0 1-.77.399h-7.23v4.691h3.882q.485 0 .766.364.28.363.28.855 0 .446-.265.809-.27.363-.781.363h-3.883v4.715h7.23q.488 0 .77.398.281.399.281.961 0 .516-.27.914-.27.399-.78.399h-9.098q-.591 0-1.023-.258-.434-.258-.434-.703" style="stroke:none;fill-rule:nonzero;fill:#0067b3;fill-opacity:1"/></g><g clip-path="url(#d)"><path d="M33.512 95.258V80.016q-.001-.469.484-.704t1.176-.234 1.176.234.484.704v13.53h6.238q.463 0 .727.4.27.397.27.937t-.27.937a.83.83 0 0 1-.727.399h-8.1q-.591 0-1.024-.258t-.433-.703" style="stroke:none;fill-rule:nonzero;fill:#0067b3;fill-opacity:1"/></g><g clip-path="url(#e)"><path d="M47.465 95.258V80.039q-.001-.445.437-.703.435-.258 1.02-.258h9.101q.512 0 .778.399.27.398.27.914 0 .563-.282.96a.89.89 0 0 1-.766.399H50.79v4.691h3.887a.92.92 0 0 1 .765.364q.282.363.282.855 0 .446-.27.809-.268.363-.777.363H50.79v4.715h7.234q.487 0 .766.398.282.399.281.961 0 .516-.27.914c-.175.266-.437.399-.777.399h-9.101q-.585 0-1.02-.258-.438-.258-.437-.703" style="stroke:none;fill-rule:nonzero;fill:#0067b3;fill-opacity:1"/></g><g clip-path="url(#f)"><path d="M62.215 90.988V84.45q.001-2.77 1.637-4.07 1.633-1.3 4.27-1.3 2.683 0 4.382 1.218 1.7 1.218 1.7 3.234c0 .582-.13.973-.384 1.188q-.386.316-1.277.316c-1.094 0-1.645-.32-1.664-.965a7 7 0 0 0-.063-.527 2.7 2.7 0 0 0-.203-.586 2.1 2.1 0 0 0-.422-.61q-.258-.245-.77-.421a3.7 3.7 0 0 0-1.198-.176q-2.685-.002-2.684 2.7v6.538q-.001 2.7 2.734 2.7.815 0 1.368-.235.549-.234.793-.668c.16-.289.273-.55.332-.773a4.2 4.2 0 0 0 .113-.836q.077-.96 1.637-.961.896 0 1.289.316c.265.211.398.61.398 1.184q0 2.114-1.7 3.379c-1.132.844-2.605 1.265-4.41 1.265-1.753 0-3.175-.433-4.257-1.3q-1.622-1.3-1.621-4.07" style="stroke:none;fill-rule:nonzero;fill:#0067b3;fill-opacity:1"/></g><g clip-path="url(#g)"><path d="M76.809 80.402q0-.527.27-.925.267-.399.78-.399h10.813q.51 0 .777.399.27.398.27.925 0 .551-.281.95a.89.89 0 0 1-.766.398h-3.734v13.504q0 .444-.497.707-.5.258-1.164.258-.69 0-1.175-.258-.486-.263-.485-.707V81.75H77.86a.9.9 0 0 1-.77-.387c-.187-.261-.28-.578-.28-.96" style="stroke:none;fill-rule:nonzero;fill:#0067b3;fill-opacity:1"/></g><g clip-path="url(#h)"><path d="M96.441 86.746h2.813q2.732 0 2.734-2.484-.002-2.513-2.734-2.512H96.44Zm-3.324 8.512V80.016q0-.376.309-.657a1.1 1.1 0 0 1 .765-.28h5.063c4.035 0 6.058 1.632 6.058 4.898q0 1.927-.91 3.097-.907 1.172-2.441 1.594l3.352 5.7a.55.55 0 0 1 .124.374c0 .39-.218.754-.664 1.09-.445.336-.91.504-1.406.504-.492 0-.879-.242-1.148-.727l-3.63-6.472h-2.148v6.12q.001.447-.484.704c-.324.172-.719.258-1.176.258q-.667 0-1.164-.258-.499-.258-.5-.703" style="stroke:none;fill-rule:nonzero;fill:#0067b3;fill-opacity:1"/></g><g clip-path="url(#i)"><path d="M109.273 95.258V80.016q-.001-.469.485-.704.485-.234 1.176-.234.69 0 1.175.234t.485.704v15.242q.001.445-.496.703-.498.258-1.164.258-.69 0-1.176-.258-.485-.258-.485-.703" style="stroke:none;fill-rule:nonzero;fill:#0067b3;fill-opacity:1"/></g><g clip-path="url(#j)"><path d="M117.07 90.988V84.45q-.001-2.77 1.633-4.07c1.09-.867 2.516-1.3 4.27-1.3q2.684 0 4.382 1.218c1.133.812 1.704 1.89 1.704 3.234 0 .582-.13.973-.387 1.188q-.381.316-1.277.316-1.636.001-1.66-.965a7 7 0 0 0-.063-.527 2.8 2.8 0 0 0-.207-.586 1.9 1.9 0 0 0-.422-.61q-.257-.245-.766-.421a3.7 3.7 0 0 0-1.203-.176q-2.683-.002-2.683 2.7v6.538q.002 2.7 2.734 2.7.821 0 1.367-.235.552-.234.793-.668c.164-.289.274-.55.332-.773q.094-.342.117-.836.076-.96 1.633-.961.896 0 1.293.316c.266.211.399.61.399 1.184q-.001 2.114-1.704 3.379-1.698 1.266-4.406 1.265-2.636 0-4.258-1.3t-1.62-4.07" style="stroke:none;fill-rule:nonzero;fill:#0067b3;fill-opacity:1"/></g><g clip-path="url(#k)"><path d="M132.984 95.258V80.016q-.001-.469.485-.704.485-.234 1.176-.234.69 0 1.175.234t.485.704v15.242q.001.445-.496.703c-.332.172-.723.258-1.164.258q-.69 0-1.176-.258t-.485-.703" style="stroke:none;fill-rule:nonzero;fill:#0067b3;fill-opacity:1"/></g><g clip-path="url(#l)"><path d="M139.73 80.402q0-.527.27-.925.27-.399.777-.399h10.813c.344 0 .601.133.781.399q.27.398.27.925 0 .551-.282.95a.9.9 0 0 1-.77.398h-3.73v13.504q-.001.444-.5.707-.498.258-1.16.258-.69 0-1.176-.258-.487-.263-.488-.707V81.75h-3.758a.9.9 0 0 1-.765-.387c-.188-.261-.282-.578-.282-.96" style="stroke:none;fill-rule:nonzero;fill:#0067b3;fill-opacity:1"/></g><g clip-path="url(#m)"><path d="M156.04 95.258V80.039q0-.445.433-.703.435-.258 1.023-.258h9.098c.344 0 .601.133.781.399q.27.398.27.914 0 .563-.282.96a.9.9 0 0 1-.77.399h-7.23v4.691h3.883c.324 0 .578.121.77.364.183.242.28.527.28.855q0 .446-.269.809-.27.363-.78.363h-3.884v4.715h7.23q.488 0 .77.398.282.399.282.961 0 .516-.27.914c-.18.266-.437.399-.781.399h-9.098a1.97 1.97 0 0 1-1.023-.258q-.434-.258-.434-.703" style="stroke:none;fill-rule:nonzero;fill:#0067b3;fill-opacity:1"/></g><g clip-path="url(#n)"><path d="M177.867 95.258V80.039q0-.445.434-.703a2 2 0 0 1 1.023-.258h9.102q.508 0 .777.399.27.398.27.914 0 .563-.282.96a.89.89 0 0 1-.765.399h-7.235v4.691h3.883q.487 0 .77.364.28.363.281.855 0 .446-.27.809t-.78.363h-3.884v4.715h7.235c.32 0 .578.133.765.398q.282.399.282.961 0 .516-.27.914-.269.399-.777.399h-9.102q-.584 0-1.023-.258-.434-.258-.434-.703" style="stroke:none;fill-rule:nonzero;fill:#0067b3;fill-opacity:1"/></g><g clip-path="url(#o)"><path d="M193 95.258V80.039q-.001-.468.484-.715.486-.246 1.176-.246.92 0 1.406.305c.325.203.68.64 1.075 1.312l4.933 8.746v-9.425q-.001-.469.485-.704.485-.234 1.175-.234t1.176.234q.487.235.488.704v15.242q-.001.445-.5.703-.496.258-1.164.258-1.354 0-1.918-.961l-5.492-9.426v9.426q-.001.445-.5.703-.497.258-1.164.258-.69 0-1.176-.258-.485-.258-.484-.703" style="stroke:none;fill-rule:nonzero;fill:#0067b3;fill-opacity:1"/></g><g clip-path="url(#p)"><path d="M220.07 86.746h2.809q2.735 0 2.734-2.484.001-2.513-2.734-2.512h-2.809Zm-3.324 8.512V80.016q0-.376.305-.657a1.1 1.1 0 0 1 .77-.28h5.058q6.059 0 6.059 4.898.001 1.927-.907 3.097-.907 1.172-2.441 1.594l3.347 5.7a.53.53 0 0 1 .13.374q-.001.585-.665 1.09-.668.504-1.406.504-.743 0-1.152-.727l-3.63-6.472h-2.144v6.12q-.001.447-.488.704-.485.258-1.176.258c-.441 0-.832-.086-1.164-.258q-.497-.258-.496-.703" style="stroke:none;fill-rule:nonzero;fill:#0067b3;fill-opacity:1"/></g><g clip-path="url(#q)"><path d="M232.898 95.258V80.039c0-.297.149-.531.438-.703q.433-.258 1.02-.258h9.101c.34 0 .602.133.777.399q.27.398.27.914 0 .563-.281.96a.89.89 0 0 1-.766.399h-7.234v4.691h3.886a.92.92 0 0 1 .766.364q.281.363.281.855 0 .446-.27.809-.268.363-.777.363h-3.886v4.715h7.234q.485 0 .766.398.28.399.28.961 0 .516-.269.914c-.175.266-.437.399-.777.399h-9.102q-.585 0-1.02-.258c-.288-.172-.437-.406-.437-.703" style="stroke:none;fill-rule:nonzero;fill:#0067b3;fill-opacity:1"/></g><g clip-path="url(#r)"><path d="M247.113 93.523q0-.537.446-1.093c.296-.364.636-.547 1.007-.547q.333 0 .758.289.42.292.817.648c.261.235.644.45 1.136.645a4.4 4.4 0 0 0 1.637.293q1.225 0 2.047-.516.815-.514.816-1.527a1.93 1.93 0 0 0-.449-1.254 3.5 3.5 0 0 0-1.176-.914 19 19 0 0 0-1.597-.703 27 27 0 0 1-1.75-.762 10.4 10.4 0 0 1-1.61-.95 3.86 3.86 0 0 1-1.175-1.405c-.297-.59-.45-1.258-.45-2.004q0-1.266.551-2.227a3.96 3.96 0 0 1 1.469-1.5 7.2 7.2 0 0 1 1.969-.785 9.5 9.5 0 0 1 2.222-.25q.668 0 1.406.082c.497.059 1.02.148 1.575.277.55.13 1.004.328 1.351.602.352.273.528.598.528.965q0 .52-.36 1.082-.358.555-.969.554-.234 0-1.253-.445-1.025-.445-2.278-.445-1.377 0-2.133.48-.754.48-.753 1.325-.001.681.613 1.187c.41.336.918.605 1.52.82q.907.317 1.968.797t1.969 1.043q.909.562 1.52 1.63.614 1.065.613 2.495-.001 2.409-1.672 3.715-1.675 1.306-4.41 1.305-2.429 0-4.164-.914-1.74-.915-1.739-1.993" style="stroke:none;fill-rule:nonzero;fill:#0067b3;fill-opacity:1"/></g><g clip-path="url(#s)"><path d="M263.223 95.258V80.039q0-.445.433-.703.434-.258 1.024-.258h9.097q.511 0 .782.399.27.398.27.914 0 .563-.282.96a.9.9 0 0 1-.77.399h-7.23v4.691h3.883q.485 0 .765.364.282.363.282.855.002.446-.266.809-.27.363-.781.363h-3.883v4.715h7.23q.488 0 .77.398.28.399.281.961 0 .516-.27.914-.27.399-.78.399h-9.098q-.591 0-1.024-.258t-.433-.703" style="stroke:none;fill-rule:nonzero;fill:#0067b3;fill-opacity:1"/></g><g clip-path="url(#t)"><path d="M294.168 90.988V80.016q.001-.469.488-.704c.32-.156.715-.234 1.172-.234q.693 0 1.18.234c.32.157.484.391.484.704v10.972q0 2.7 2.813 2.7 2.812 0 2.812-2.7V80.016q-.001-.469.485-.704.485-.234 1.175-.234t1.176.234q.486.235.485.704v10.972q-.002 2.77-1.672 4.07-1.678 1.301-4.461 1.301c-1.86 0-3.344-.43-4.461-1.289q-1.676-1.288-1.676-4.082" style="stroke:none;fill-rule:nonzero;fill:#0067b3;fill-opacity:1"/></g><path d="M12.254 79.379s.402-.531.969-.336c0 0 .972.246 1.347.68 0 0 .246.398.051.812l-1.691 3.54s-.293.417-.973.35c0 0-.387.016-.742-.335 0 0-.531-.512-.281-1.04z" style="stroke:none;fill-rule:nonzero;fill:#0067b3;fill-opacity:1"/><g clip-path="url(#u)"><path d="m281.695 90.098 2.465-8.075 2.461 8.075Zm5.657 2.394.953 3.121q.203.605 1.27.606c.554 0 .816-.13 1.32-.387q.76-.392.761-.965.001-.05-.05-.254l-4.864-14.52c-.137-.363-.418-.648-.797-.855-.53-.285-1.273-.304-1.785-.304s-1.254.02-1.785.304c-.379.207-.66.492-.797.856l-4.863 14.52q-.051.202-.05.253 0 .573.76.965c.505.258.766.387 1.321.387q1.065 0 1.27-.606l.953-3.12z" style="stroke:none;fill-rule:nonzero;fill:#0067b3;fill-opacity:1"/></g></svg>