<svg version="1.2" xmlns="http://www.w3.org/2000/svg" viewBox="0 0 1553 273" width="1553" height="273"><defs><clipPath clipPathUnits="userSpaceOnUse" id="cp1"><path d="m1552 1v272h-1552v-272z"/></clipPath></defs><style>.a{fill:#e2750f}</style><g clip-path="url(#cp1)"><path fill-rule="evenodd" d="m461.4 112.2h-0.2l-29 81.3h-8.6l-28-81.3h-0.4l-11.4 79.6h-25l21.5-131.7h17.5l31.6 84.5 30.2-84.5h18l19.1 131.7h-25zm87.8 82.3c-24.2 0-43.7-19.9-43.7-44.5 0-24.5 19.5-44.4 43.7-44.4 24.2 0 43.7 19.9 43.7 44.4 0 24.6-19.5 44.5-43.7 44.5zm19.7-44.5c0-12.9-8.8-23.3-19.7-23.3-10.8 0-19.6 10.4-19.6 23.3 0 13 8.8 23.4 19.6 23.4 10.9 0 19.7-10.4 19.7-23.4zm63.5-34q1.9-2.6 4.3-4.6 2.4-2.1 5.2-3.4 2.9-1.4 6-2 3.1-0.6 6.2-0.4c22.4 0 28.8 15.8 28.8 35.2v51h-23.7v-44.2c0-10 0.5-23-12.9-23-14 0-14.2 15.8-14.2 25.9v41.3h-23.5v-83.5h23.7c0 0-0.2 7.7-0.2 7.7zm90.8 37.9c0 10.5 4.1 22.4 16.4 22.4 7.8 0 12.8-4.7 16-11.4l21.9 3.5q-1 3-2.5 5.7-1.4 2.7-3.3 5.2-1.8 2.4-4.1 4.6-2.2 2.1-4.7 3.9-2.6 1.7-5.4 3-2.7 1.3-5.7 2.2-3 0.8-6 1.2-3.1 0.4-6.2 0.3c-25.7 0-41.4-18.4-41.4-43.8 0-25.3 13.3-45.2 40.3-45.2 27 0 39.4 20.2 39.4 45.4v2.9c0 0-54.7 0.1-54.7 0.1zm32.4-14.8c-1.2-8.5-6.6-16.9-15.8-16.9-9.1 0-14.7 8.2-15.9 16.9 0 0 31.7 0 31.7 0zm26.1-30.8h26.9l19.9 47.5 21.3-47.5h26.5l-60.6 128.1h-26.1l27.5-57.3z"/><path fill-rule="evenodd" class="a" d="m950.8 85.3v28.2h36.1v21.8h-36.1v56.3h-24.9v-128.1h63.4v21.8c0 0-38.5 0-38.5 0zm86.8 109.2c-24.2 0-43.7-19.9-43.7-44.5 0-24.6 19.5-44.4 43.7-44.4 24.2 0 43.7 19.8 43.7 44.4 0 24.6-19.5 44.5-43.7 44.5zm19.6-44.5c0-12.9-8.7-23.3-19.6-23.3-10.9 0-19.7 10.4-19.7 23.3 0 13 8.8 23.4 19.7 23.4 10.9 0 19.6-10.4 19.6-23.4zm63.4-33h0.4q1.6-2.7 3.8-4.8 2.3-2.2 5-3.7 2.7-1.5 5.7-2.2 3-0.8 6.1-0.7c3.4 0 6.8 0.7 9.9 2l-2.9 22.1q-1.1-0.7-2.3-1.3-1.1-0.6-2.4-1-1.2-0.4-2.5-0.6-1.3-0.2-2.6-0.1c-16.5 0-18.2 14.6-18.2 27.5v37.6h-23.7v-83.5h23.7zm170.7 7l-32.8 69.5h-12l-17.8-50.9-19.8 50.9h-12.2l-38.3-85.2h25.9l18.4 44.1 19.2-46.8h13.2l18.8 46 16.3-35.7c0 0 20.6-51.7 68.4-51.9l4.7 20.1c0 0-33.3-2.3-52 39.9z"/><path fill-rule="evenodd" class="a" d="m1385.4 191.8h-23.4v-7.7h-0.3q-2 2.5-4.6 4.5-2.6 1.9-5.5 3.3-2.9 1.3-6.1 2-3.1 0.7-6.3 0.6c-24.6 0-38.3-22.3-38.3-44.9 0-22.6 14-44 37.9-44q3.3 0 6.5 0.6 3.3 0.7 6.3 2.1 3 1.4 5.6 3.4 2.7 1.9 4.8 4.4v-7.8h23.4zm-21-41.8c0-12.9-8.8-23.4-19.8-23.4-10.9 0-19.7 10.5-19.7 23.4 0 12.9 8.8 23.4 19.7 23.4 11 0 19.8-10.5 19.8-23.4zm66.1-33.1h0.4q1.6-2.6 3.8-4.8 2.3-2.1 5-3.6 2.7-1.5 5.7-2.3 3-0.7 6.1-0.7c3.4 0.1 6.7 0.8 9.8 2.1l-2.8 22.1q-1.1-0.8-2.3-1.4-1.2-0.5-2.4-0.9-1.3-0.4-2.6-0.6-1.3-0.2-2.6-0.2c-16.4 0-18.1 14.6-18.1 27.6v37.6h-23.7v-83.6h23.7zm97.8 67h-0.4q-2 2.5-4.5 4.5-2.5 2-5.4 3.4-2.9 1.4-6.1 2.1-3.1 0.6-6.3 0.6c-24.6 0-38.3-22.3-38.3-44.9 0-22.6 14-44.1 37.9-44.1q3.3 0 6.4 0.6 3.2 0.7 6.2 2 2.9 1.4 5.5 3.4 2.6 1.9 4.6 4.4h0.4v-52.4h23.7v128.3h-23.7c0 0 0-7.9 0-7.9zm2.3-33.9c0-12.9-8.8-23.4-19.6-23.4-10.9 0-19.7 10.5-19.7 23.4 0 12.9 8.8 23.4 19.7 23.4 10.8 0 19.6-10.5 19.6-23.4zm-1323.6 21.5q2.5-0.7 4.7-2 2.2-1.3 4-3.1 1.8-1.8 3.1-4l42.5-69.5c11.1 31.8 9.9 66.6-3.2 97.5-3.3 7.7-7.2 15-11.8 21.9-4.6 6.9-9.9 13.4-15.7 19.4-5.8 5.9-12.1 11.3-18.9 16.1-6.8 4.8-14 8.9-21.6 12.4-30.5 13.8-65.1 15.8-97 5.3-7.9-2.6-15.5-5.9-22.8-9.9-7.3-4-14.2-8.6-20.6-13.9-6.4-5.3-12.3-11.1-17.7-17.5-5.3-6.4-10-13.2-14.1-20.5-4.1-7.2-7.5-14.8-10.2-22.7-2.6-7.9-4.6-16-5.8-24.2-1.2-8.3-1.6-16.6-1.2-24.9 0.3-8.3 1.4-16.6 3.3-24.7 1.8-8.1 4.5-16 7.8-23.6 3.3-7.7 7.3-15 12-21.8 4.6-6.9 9.9-13.4 15.8-19.3 5.8-5.9 12.2-11.2 19.1-15.9 13.7-9.5 29-16.3 45.2-20.2 16.1-3.8 32.9-4.6 49.4-2.3 16.5 2.3 32.4 7.7 46.9 15.8 14.5 8.1 27.3 18.9 37.9 31.8l-37.9 62.1-28.1-40.4q-1.7-2.3-3.9-4.1-2.2-1.8-4.8-3-2.7-1.1-5.5-1.4-2.8-0.4-5.7 0-2.8 0.5-5.4 1.6-2.6 1.2-4.8 3.1-2.2 1.8-3.8 4.2-1.6 2.4-2.5 5.1l-18.6 54.6-16.4-21q-1.7-2.2-4-3.9-2.2-1.6-4.9-2.6-2.6-1-5.4-1.3-2.8-0.2-5.6 0.3-2.8 0.5-5.3 1.8-2.5 1.2-4.6 3.1-2.1 1.9-3.7 4.2-1.5 2.4-2.3 5.1l-23 73.9q-0.5 1.9-0.6 3.9-0.1 2 0.2 3.9 0.2 2 0.9 3.8 0.6 1.9 1.5 3.6c2 3.4 4.8 6.3 8.3 8.1 3.5 1.9 7.4 2.7 11.3 2.4 4-0.3 7.7-1.8 10.9-4.1 3.1-2.4 5.5-5.7 6.8-9.4l11.4-36.5 15.6 19.9q1.7 2.2 3.9 3.8 2.3 1.7 4.8 2.7 2.6 1 5.4 1.3 2.8 0.2 5.5-0.2 2.7-0.5 5.3-1.7 2.5-1.2 4.6-3 2.1-1.8 3.7-4.1 1.5-2.3 2.4-4.9l17.8-52 22.9 32.9q1.4 2.1 3.4 3.8 1.9 1.7 4.2 2.8 2.3 1.2 4.8 1.7 2.5 0.6 5.1 0.5 2.6-0.1 5-0.8zm98-143.8c0 2.6-0.4 5.2-1.2 7.7-0.7 2.6-1.9 5-3.3 7.2-1.5 2.1-3.3 4.1-5.3 5.8-2 1.7-4.3 3-6.7 4-2.4 1.1-5 1.7-7.6 2-2.6 0.2-5.3 0.1-7.9-0.4-2.5-0.5-5-1.4-7.4-2.7-2.3-1.2-4.4-2.8-6.2-4.7-3.8-3.7-6.3-8.5-7.3-13.7-1.1-5.2-0.5-10.6 1.5-15.4 2-4.9 5.4-9.1 9.8-12.1 4.4-2.9 9.6-4.5 14.8-4.6 7.1 0 13.9 2.9 18.9 7.9q1.9 1.9 3.4 4.1 1.4 2.2 2.4 4.6 1 2.4 1.6 5 0.5 2.6 0.5 5.3z"/></g></svg>